<?xml version="1.0" encoding="utf-8"?>
<!-- Svg Vector Icons : http://www.onlinewebfonts.com/icon -->
<!DOCTYPE svg PUBLIC "-//W3C//DTD SVG 1.1//EN" "http://www.w3.org/Graphics/SVG/1.1/DTD/svg11.dtd">
<svg version="1.1" xmlns="http://www.w3.org/2000/svg" xmlns:xlink="http://www.w3.org/1999/xlink" x="0px" y="0px" viewBox="0 0 256 256" enable-background="new 0 0 256 256" xml:space="preserve">
<metadata> Svg Vector Icons : http://www.onlinewebfonts.com/icon </metadata>
<g><g><g><path fill="#000000" d="M22.8,34.1c-5.1,1.3-10.2,6.1-11.9,11.1c-0.8,2.2-0.8,6-0.8,56.6v54.3l1.9,3.7c2.2,4.3,5.1,7,9.3,8.5c2.7,1,3.2,1,28.4,1c14.1,0,25.7,0.2,25.8,0.3c0.1,0.1-0.7,6.2-1.9,13.4c-2.3,15.3-2.3,16,1,19.3c1.9,1.9,5.1,3.1,7.1,2.7c0.4-0.1,1.4-0.3,2.2-0.5c1-0.2,5.9-4.8,19-17.9c15.7-15.6,17.8-17.6,19.1-17.6h1.4l0.2,10.1c0.1,9.8,0.2,10.2,1.3,12.7c1.5,3.3,4,5.8,7.2,7.2l2.5,1.2h19.4l19.3,0l10.7,10.5c11,10.9,11.9,11.6,15.5,11.6c2.1,0,5.9-2.1,7.1-4c1.7-2.5,1.9-5.1,0.8-11.7c-0.5-3.2-0.8-5.9-0.7-6c0.1-0.1,6.6-0.3,14.4-0.3l14.2-0.1l2.9-1.4c3.1-1.5,5.1-3.6,6.7-7l1.1-2.1v-34.5c0-34.4,0-34.5-1-36.7c-1.4-3.1-4.4-6.1-7.2-7.4c-2.4-1.1-2.6-1.1-21-1.3l-18.7-0.1V79.4c0-32.9,0-33.2-2.5-37.4c-1.7-2.8-5.4-6.1-8.5-7.3l-2.6-1.1l-79.5-0.1C36.3,33.4,24.9,33.5,22.8,34.1z M183.8,43.3c2,0.8,4.4,3.6,4.7,5.5c0.1,0.8,0.2,25.1,0.1,54l-0.1,52.4l-1.3,1.7c-2.8,3.7-1,3.5-38.2,3.5h-33l-17.4,17.7c-9.6,9.8-17.5,17.7-17.6,17.5c-0.1-0.1,1-8.1,2.4-17.6l2.6-17.4l-30.6-0.2c-32.9-0.2-32-0.2-34.1-2.6c-2.4-2.7-2.3,0.2-2.3-56.2c0-35.9,0.1-52.8,0.5-53.7c0.7-1.7,2.6-3.8,4.4-4.6C26,42.4,181.6,42.4,183.8,43.3z M235.4,120.7l1.6,1.6v32.9c0,36.1,0.1,34.1-2.8,35.6c-1.1,0.6-4.4,0.7-19.9,0.7h-18.5l0.2,1c0.3,1.3,3,19.4,3,20c0,0.3-4.9-4.4-10.8-10.3l-10.8-10.8h-20.3c-22.3,0-22.3,0-23.7-2.8c-0.6-1.1-0.7-3-0.6-10.3l0.1-8.9l25.5-0.1c24.7,0,25.6-0.1,28.1-1.1c5.3-1.9,8.9-5.7,10.6-11.1c0.9-2.7,0.9-4.2,0.9-20.5v-17.6h17.9h17.9L235.4,120.7z"/><path fill="#000000" d="M67.6,93.2c-4.2,2.2-5.7,8.3-3,12.4c1.6,2.5,4.2,3.8,7.3,3.8c3.8,0,6.7-1.9,8.1-5.2c1.3-3,0.6-7-1.5-9.3C76.1,92.2,70.9,91.5,67.6,93.2z"/><path fill="#000000" d="M99.6,93.2c-4.2,2.2-5.7,8.3-3,12.4c3.3,5.1,11.2,5.1,14.5,0.1c2.1-3.2,1.9-7.5-0.4-10.4C108.5,92.3,103.1,91.4,99.6,93.2z"/><path fill="#000000" d="M131.6,93.2c-4.2,2.2-5.7,8.3-3,12.4c1.6,2.5,4.2,3.8,7.3,3.8c3.1,0,5.7-1.3,7.3-3.8c1.9-2.7,1.9-6.8,0-9.6C140.8,92.4,135.5,91.1,131.6,93.2z"/></g></g></g>
</svg>